# xmcd CD database file
#
# Track frame offsets:
#	150
#	17313
#	31777
#	56687
#	74995
#	95550
#	118296
#	139399
#	154456
#	176661
#
# Disc length: 2580 seconds
#
# Revision: 1
# Processed by: cddbd v1.5.1PL0 Copyright (c) Steve Scherf et al.
# Submitted via: jetAudio 5
#
DISCID=930a120a
DTITLE=Evans and Haas - Q
DYEAR=1900
DGENRE=
TTITLE0=Q
TTITLE1=I Need To Love You
TTITLE2=Fields Of White
TTITLE3=I've Got A Feeling
TTITLE4=Ivory Tower
TTITLE5=Could It Be
TTITLE6=Been There, Done That
TTITLE7=Grits From The Ritz
TTITLE8=Do You Believe
TTITLE9=Q (Instr.)
EXTD=http://www.evansandhaas.comhttp://www.theschoolofblues.com
EXTT0=
EXTT1=
EXTT2=
EXTT3=
EXTT4=
EXTT5=
EXTT6=
EXTT7=
EXTT8=
EXTT9=
PLAYORDER=
